<svg xmlns="http://www.w3.org/2000/svg" viewBox="0 0 118.83 22.83"><defs><style>.cls-1{fill:#002856}.cls-2{fill:#009fc5}</style></defs><title>Asset 15</title><g id="Layer_2"><g id="Layer_1-2"><path d="M25.66 7.6h-.33a4.36 4.36 0 0 0-1-2.58A2.92 2.92 0 0 0 22 4.1a2.1 2.1 0 0 0-1.55.6A1.83 1.83 0 0 0 19.9 6q0 1 1.7 2.06l3.14 1.8a3.35 3.35 0 0 1 1.7 2.65A3.2 3.2 0 0 1 25.4 15a4.17 4.17 0 0 1-2.93 1 4.72 4.72 0 0 1-1-.1 5.46 5.46 0 0 1-.78-.23L20 15.4a1.55 1.55 0 0 0-.55-.1.45.45 0 0 0-.37.17 1.06 1.06 0 0 0-.2.5h-.3v-4h.3a3.1 3.1 0 0 0 1.15 2.5 3.8 3.8 0 0 0 2.52.87 2.46 2.46 0 0 0 1.6-.55 1.74 1.74 0 0 0 .67-1.44q0-1.2-1.64-2.22l-3.03-1.78a3.3 3.3 0 0 1-1.66-2.7 3 3 0 0 1 1-2.3 4 4 0 0 1 3.38-.85l.67.2.6.23a1.66 1.66 0 0 0 .54.16.6.6 0 0 0 .44-.23.66.66 0 0 0 .2-.45h.32zm2.68 9.6V10a5 5 0 0 0-.07-1.07q-.07-.25-.46-.25a3.2 3.2 0 0 0-.7.14l-.1-.3 2.4-1.1h.43v1.8a5 5 0 0 1 1.43-1.45 2.37 2.37 0 0 1 1.25-.35 2.48 2.48 0 0 1 2.1 1.1 4.46 4.46 0 0 1 .8 2.7 5.36 5.36 0 0 1-1 3.33 3.1 3.1 0 0 1-2.6 1.3 3.32 3.32 0 0 1-2-.6v2a2.2 2.2 0 0 0 .2 1.2 1.22 1.22 0 0 0 1 .32v.32h-4v-.33a1.22 1.22 0 0 0 1-.33 2.2 2.2 0 0 0 .34-1.23zm1.46-7.4v3.7a1.64 1.64 0 0 0 .55 1.25 2 2 0 0 0 1.43.5 1.65 1.65 0 0 0 1.4-.88 4.18 4.18 0 0 0 .57-2.3 5.36 5.36 0 0 0-.53-2.64 1.57 1.57 0 0 0-1.4-.92 2 2 0 0 0-1.15.4 3.42 3.42 0 0 0-.87.9zm12.4-.23v4.58a.9.9 0 0 0 .1.45.33.33 0 0 0 .32.17.77.77 0 0 0 .5-.2 2.62 2.62 0 0 0 .4-.5v.6a2.42 2.42 0 0 1-.74.83 2 2 0 0 1-1.14.37.72.72 0 0 1-.65-.4 1.74 1.74 0 0 1-.24-.9q-1 .82-1 .87a2.66 2.66 0 0 1-1.48.42 1.76 1.76 0 0 1-1.36-.57 2.08 2.08 0 0 1-.52-1.46 2.55 2.55 0 0 1 1.48-2.24 23.58 23.58 0 0 1 2.92-1.16v-.5a2.5 2.5 0 0 0-.36-1.53 1.28 1.28 0 0 0-1.07-.45 1.15 1.15 0 0 0-1 .4 1.37 1.37 0 0 0-.23.84 1.65 1.65 0 0 1-.14.8.58.58 0 0 1-.56.3.7.7 0 0 1-.56-.26 1.07 1.07 0 0 1-.2-.7A1.57 1.57 0 0 1 37.5 8a3.9 3.9 0 0 1 2.1-.55 2.94 2.94 0 0 1 2 .58 2 2 0 0 1 .6 1.54zM40.76 14v-3a7.83 7.83 0 0 0-1.94 1 2 2 0 0 0-1 1.5 1.54 1.54 0 0 0 .38 1 1.07 1.07 0 0 0 .83.44 1.8 1.8 0 0 0 .9-.26 7.78 7.78 0 0 0 .85-.68zm4.44-.2V10a5.05 5.05 0 0 0-.08-1.08q-.07-.25-.46-.25a2.88 2.88 0 0 0-.72.16l-.12-.32 2.4-1.06h.43V9.1a5.46 5.46 0 0 1 1-1.17 1.76 1.76 0 0 1 1.14-.5 1.22 1.22 0 0 1 .8.27.87.87 0 0 1 .33.7q0 .78-.85.78a1 1 0 0 1-.67-.26.93.93 0 0 0-.54-.26.75.75 0 0 0-.55.32 5.88 5.88 0 0 0-.62 1v3.87A2.2 2.2 0 0 0 46.9 15a1.22 1.22 0 0 0 1 .33v.32h-4v-.32a1.22 1.22 0 0 0 1-.34 2.2 2.2 0 0 0 .3-1.2zm7.25-10.38v7.66l2-1.78.65-.58a.82.82 0 0 0 .3-.53.22.22 0 0 0-.17-.2 1.56 1.56 0 0 0-.5-.05V7.6h3.34v.32a3.38 3.38 0 0 0-1.37.24 6 6 0 0 0-1.43 1.08l-1.48 1.28 2.4 3A8.18 8.18 0 0 0 57.54 15a1.9 1.9 0 0 0 1.13.35v.32h-4v-.32a.58.58 0 0 0 .4-.1.4.4 0 0 0 .1-.3 1 1 0 0 0-.2-.45q-.18-.3-.45-.63l-2.1-2.64v2.55a2.2 2.2 0 0 0 .26 1.22 1.22 1.22 0 0 0 1 .33v.32h-4v-.32a1.22 1.22 0 0 0 1-.33 2.2 2.2 0 0 0 .3-1.2V6a5 5 0 0 0-.07-1.07q-.07-.25-.46-.25a3.2 3.2 0 0 0-.72.14l-.12-.32L52 3.42z" class="cls-1"/><path d="M65.2 3.42h.43L70 13.8a3.74 3.74 0 0 0 .72 1.2 1.88 1.88 0 0 0 1.27.36v.32h-4.92v-.32q1.3 0 1.3-.77a2 2 0 0 0-.22-.8l-.9-2.1H62.6l-.92 2.1a2.15 2.15 0 0 0-.2.8.64.64 0 0 0 .32.56 2.1 2.1 0 0 0 1.07.2v.32H59v-.32a1.36 1.36 0 0 0 1-.42 4.16 4.16 0 0 0 .7-1.14zm-.25 2.76L62.87 11h4.06zm8.95 7.62V10a5 5 0 0 0-.06-1.07q-.07-.25-.46-.25a3.2 3.2 0 0 0-.72.14l-.12-.3L75 7.42h.42V9.1a5.56 5.56 0 0 1 1.38-1.2 2.8 2.8 0 0 1 1.45-.5 2.1 2.1 0 0 1 1.3.5 1.9 1.9 0 0 1 .75 1.2 3 3 0 0 1 1.2-1.2 3.26 3.26 0 0 1 1.68-.5 1.75 1.75 0 0 1 1.42.75 2.82 2.82 0 0 1 .58 1.8v3.84a2.2 2.2 0 0 0 .2 1.2 1.22 1.22 0 0 0 1 .33v.32h-4v-.32a1.22 1.22 0 0 0 1-.33 2.2 2.2 0 0 0 .25-1.23v-3.6A1.85 1.85 0 0 0 83.28 9a1.15 1.15 0 0 0-.93-.5 2.5 2.5 0 0 0-1.2.34 2.25 2.25 0 0 0-.9.8v4.15a2.2 2.2 0 0 0 .25 1.2 1.22 1.22 0 0 0 1 .33v.32h-4v-.32a1.22 1.22 0 0 0 1-.33 2.2 2.2 0 0 0 .25-1.23v-3.6A1.85 1.85 0 0 0 78.4 9a1.15 1.15 0 0 0-.93-.5 2.33 2.33 0 0 0-1.15.34 3 3 0 0 0-.94.8v4.15a2.2 2.2 0 0 0 .24 1.2 1.22 1.22 0 0 0 1 .33v.32h-4v-.32a1.22 1.22 0 0 0 1-.33 2.2 2.2 0 0 0 .3-1.2zm13.72 3.4V10a5 5 0 0 0-.07-1.07q-.07-.25-.46-.25a3.2 3.2 0 0 0-.73.14l-.12-.3 2.4-1.1h.43v1.8a5 5 0 0 1 1.43-1.45 2.37 2.37 0 0 1 1.26-.35 2.48 2.48 0 0 1 2.1 1.1 4.46 4.46 0 0 1 .8 2.7 5.36 5.36 0 0 1-1 3.33 3.1 3.1 0 0 1-2.62 1.3 3.32 3.32 0 0 1-2-.6v2a2.2 2.2 0 0 0 .25 1.23 1.22 1.22 0 0 0 1 .33v.33h-4v-.32a1.22 1.22 0 0 0 1-.32 2.2 2.2 0 0 0 .32-1.27zm1.46-7.4v3.7a1.64 1.64 0 0 0 .55 1.25 2 2 0 0 0 1.43.5 1.65 1.65 0 0 0 1.4-.88 4.18 4.18 0 0 0 .57-2.3 5.36 5.36 0 0 0-.53-2.64 1.57 1.57 0 0 0-1.4-.92 2 2 0 0 0-1.15.4 3.42 3.42 0 0 0-.87.9zM98 3.42V13.8a2.2 2.2 0 0 0 .2 1.2 1.22 1.22 0 0 0 1 .33v.32h-4v-.32a1.22 1.22 0 0 0 1-.33 2.2 2.2 0 0 0 .25-1.23V6a5 5 0 0 0-.07-1.07q-.07-.25-.46-.25a3.2 3.2 0 0 0-.72.14l-.12-.32 2.4-1.07zm3.4 10.38V10a5 5 0 0 0-.08-1.07q-.07-.25-.46-.25a3.2 3.2 0 0 0-.72.14L100 8.5l2.4-1.08h.43v6.37a2.2 2.2 0 0 0 .27 1.2 1.22 1.22 0 0 0 1 .33v.32h-4v-.32a1.22 1.22 0 0 0 1-.33 2.2 2.2 0 0 0 .3-1.2zm.7-10.38a.85.85 0 0 1 .6.23.76.76 0 0 1 .26.58.78.78 0 0 1-.25.56.82.82 0 0 1-.6.24.85.85 0 0 1-.6-.23.76.76 0 0 1-.24-.57.77.77 0 0 1 .25-.56.8.8 0 0 1 .6-.25zm5.64 4.18h2v.6h-2v5.6A2.2 2.2 0 0 0 108 15a1.22 1.22 0 0 0 1 .33v.32h-4v-.32a1.22 1.22 0 0 0 1-.33 2.2 2.2 0 0 0 .25-1.23V8.2h-1.55v-.6h1.55V6.38a3 3 0 0 1 .8-2.1 2.55 2.55 0 0 1 2-.86 4.25 4.25 0 0 1 1.87.35 1.14 1.14 0 0 1 .7 1.07q0 .7-.72.7-.5 0-.92-.77A1.18 1.18 0 0 0 109 4a1.08 1.08 0 0 0-.84.46 1.6 1.6 0 0 0-.38 1.06zm6.66 7.67L111.87 10a7 7 0 0 0-.94-1.58 1.2 1.2 0 0 0-.85-.5V7.6h3.7v.32a1 1 0 0 0-.7.17.63.63 0 0 0-.16.46 2.3 2.3 0 0 0 .28.9q.16.33.33.65l1.57 3.34 1.68-4.14a2.66 2.66 0 0 0 .25-.88q0-.5-.83-.5V7.6h2.62v.32a.83.83 0 0 0-.7.28 5.17 5.17 0 0 0-.55 1.1l-3.27 8a4.1 4.1 0 0 1-1.08 1.55 2.14 2.14 0 0 1-1.4.6 1.4 1.4 0 0 1-.83-.24.73.73 0 0 1-.35-.6 1 1 0 0 1 .2-.68.9.9 0 0 1 .7-.23 1.17 1.17 0 0 1 .5.08 1.92 1.92 0 0 0 .66.23.88.88 0 0 0 .7-.5 9.47 9.47 0 0 0 .46-1z" class="cls-2"/><rect width="2.93" height="18.15" y="2.34" class="cls-1" rx="1.27" ry="1.27"/><rect width="2.93" height="18.15" x="4.02" class="cls-2" rx="1.27" ry="1.27"/><rect width="2.93" height="18.15" x="8.04" y="4.68" class="cls-1" rx="1.27" ry="1.27"/><rect width="2.93" height="18.15" x="12.07" y="2.34" class="cls-2" rx="1.27" ry="1.27"/></g></g></svg>