<svg xmlns="http://www.w3.org/2000/svg" viewBox="0 0 235 45.15"><defs><style>.cls-1{fill:#fff}</style></defs><title>Asset 1</title><g id="Layer_2" data-name="Layer 2"><g id="圖層_1" data-name="圖層 1"><path class="cls-1" d="M50.74 15h-.66a8.62 8.62 0 0 0-2-5.1 5.78 5.78 0 0 0-4.48-1.81 4.15 4.15 0 0 0-3.06 1.19 3.63 3.63 0 0 0-1.18 2.61q0 2 3.34 4.07 3.1 1.81 6.23 3.59 3.38 2.4 3.38 5.22a6.31 6.31 0 0 1-2.11 4.86 8.25 8.25 0 0 1-5.8 2 9.34 9.34 0 0 1-2-.19 10.81 10.81 0 0 1-1.55-.45l-1.24-.47a3.07 3.07 0 0 0-1.08-.21.89.89 0 0 0-.73.35 2.09 2.09 0 0 0-.38 1h-.63v-8h.63a6.12 6.12 0 0 0 2.26 4.94 7.53 7.53 0 0 0 5 1.74 4.87 4.87 0 0 0 3.15-1.08 3.45 3.45 0 0 0 1.34-2.82q0-2.37-3.24-4.39-3.06-1.71-6.09-3.45-3.27-2.3-3.27-5.36a6 6 0 0 1 2-4.54 7.9 7.9 0 0 1 6.7-1.7l1.32.38q.42.14 1.17.45a3.28 3.28 0 0 0 1.1.31 1.19 1.19 0 0 0 .89-.44 1.32 1.32 0 0 0 .4-.89h.63zM56 34V19.76a9.88 9.88 0 0 0-.14-2.12q-.14-.49-.91-.49a6.32 6.32 0 0 0-1.43.28l-.24-.59 4.82-2.16h.84v3.59a9.85 9.85 0 0 1 2.82-2.89 4.69 4.69 0 0 1 2.47-.7 4.9 4.9 0 0 1 4.13 2.16 8.82 8.82 0 0 1 1.58 5.36A10.61 10.61 0 0 1 68 28.78a6.15 6.15 0 0 1-5.15 2.58 6.57 6.57 0 0 1-3.9-1.18v3.87a4.35 4.35 0 0 0 .49 2.44 2.41 2.41 0 0 0 2 .66v.63h-7.9v-.63a2.42 2.42 0 0 0 2-.66A4.35 4.35 0 0 0 56 34zm2.89-14.63v7.28A3.25 3.25 0 0 0 60 29.16a4 4 0 0 0 2.82 1 3.27 3.27 0 0 0 2.77-1.76 8.27 8.27 0 0 0 1.13-4.54 10.59 10.59 0 0 0-1-5.22A3.11 3.11 0 0 0 63 16.83a3.9 3.9 0 0 0-2.3.77 6.75 6.75 0 0 0-1.73 1.81zm24.58-.45V28a1.77 1.77 0 0 0 .19.89.65.65 0 0 0 .61.33 1.53 1.53 0 0 0 1-.38 5.18 5.18 0 0 0 .77-1V29a4.79 4.79 0 0 1-1.46 1.58 3.87 3.87 0 0 1-2.26.73 1.42 1.42 0 0 1-1.32-.73 3.45 3.45 0 0 1-.45-1.76q-1.88 1.6-2.05 1.71a5.26 5.26 0 0 1-2.92.84 3.47 3.47 0 0 1-2.7-1.13 4.11 4.11 0 0 1-1-2.87q0-2.72 2.93-4.42a46.63 46.63 0 0 1 5.78-2.3v-1a5 5 0 0 0-.71-3 2.52 2.52 0 0 0-2.11-.91 2.27 2.27 0 0 0-1.92.77 2.7 2.7 0 0 0-.45 1.67 3.26 3.26 0 0 1-.31 1.53 1.15 1.15 0 0 1-1.09.57 1.35 1.35 0 0 1-1.11-.52 2.11 2.11 0 0 1-.42-1.36 3.11 3.11 0 0 1 1.74-2.65 7.71 7.71 0 0 1 4.14-1.08 5.81 5.81 0 0 1 4 1.15 4 4 0 0 1 1.12 3.1zm-2.89 8.74v-6a15.49 15.49 0 0 0-3.83 1.92q-2 1.43-2 3a3 3 0 0 0 .73 2 2.12 2.12 0 0 0 1.64.87 3.54 3.54 0 0 0 1.78-.52 15.39 15.39 0 0 0 1.68-1.27zm8.79-.39v-7.54a10 10 0 0 0-.14-2.15q-.14-.49-.91-.49a5.7 5.7 0 0 0-1.43.31l-.24-.63 4.77-2.12h.84V18a10.8 10.8 0 0 1 1.88-2.33 3.47 3.47 0 0 1 2.26-1 2.41 2.41 0 0 1 1.6.56 1.72 1.72 0 0 1 .67 1.36q0 1.57-1.67 1.57a2 2 0 0 1-1.32-.52 1.83 1.83 0 0 0-1.08-.52 1.49 1.49 0 0 0-1.1.63 11.63 11.63 0 0 0-1.24 1.84v7.7a4.34 4.34 0 0 0 .49 2.44 2.41 2.41 0 0 0 2 .66V31h-7.9v-.63a2.41 2.41 0 0 0 2-.66 4.37 4.37 0 0 0 .52-2.44z"/><path class="cls-1" d="M103.72 6.77v15.15l3.87-3.52 1.29-1.15a1.63 1.63 0 0 0 .59-1 .44.44 0 0 0-.24-.45 3.08 3.08 0 0 0-1-.1v-.63h6.62v.63a6.68 6.68 0 0 0-2.72.47 11.85 11.85 0 0 0-2.82 2.14l-2.93 2.53 4.75 6a16.19 16.19 0 0 0 2.72 2.89 3.74 3.74 0 0 0 2.23.7v.63h-7.83v-.68a1.15 1.15 0 0 0 .76-.19.78.78 0 0 0 .21-.61 1.94 1.94 0 0 0-.38-.87 14.9 14.9 0 0 0-.91-1.25l-4.18-5.23v5a4.35 4.35 0 0 0 .49 2.44 2.41 2.41 0 0 0 2 .66V31h-7.9v-.58a2.41 2.41 0 0 0 2-.66 4.36 4.36 0 0 0 .49-2.44V11.86a9.88 9.88 0 0 0-.14-2.12q-.14-.49-.91-.49a6.33 6.33 0 0 0-1.43.28l-.24-.63 4.77-2.12zm25.28 0h.84l8.67 20.51a7.39 7.39 0 0 0 1.43 2.37 3.71 3.71 0 0 0 2.51.73V31h-9.75v-.63q2.58 0 2.58-1.53a4 4 0 0 0-.43-1.56L133 23.1h-9.2l-1.8 4.17a4.26 4.26 0 0 0-.4 1.57 1.27 1.27 0 0 0 .63 1.14 4.14 4.14 0 0 0 2.12.4V31h-7.56v-.63a2.68 2.68 0 0 0 2-.84 8.22 8.22 0 0 0 1.36-2.26zm-.52 5.46l-4.1 9.55h8zm17.69 15.05v-7.52a9.88 9.88 0 0 0-.14-2.12q-.14-.49-.91-.49a6.33 6.33 0 0 0-1.43.28l-.24-.59 4.77-2.16h.84V18a11 11 0 0 1 2.73-2.4 5.56 5.56 0 0 1 2.87-.94 4.13 4.13 0 0 1 2.59 1 3.78 3.78 0 0 1 1.47 2.42 6 6 0 0 1 2.38-2.4 6.46 6.46 0 0 1 3.31-1 3.45 3.45 0 0 1 2.81 1.46 5.58 5.58 0 0 1 1.15 3.55v7.61a4.34 4.34 0 0 0 .49 2.44 2.41 2.41 0 0 0 2 .66v.6H163v-.63a2.41 2.41 0 0 0 2-.66 4.35 4.35 0 0 0 .49-2.44v-7.13a3.66 3.66 0 0 0-.77-2.33 2.28 2.28 0 0 0-1.84-1 5 5 0 0 0-2.37.66 4.46 4.46 0 0 0-1.78 1.6v8.21a4.34 4.34 0 0 0 .49 2.44 2.41 2.41 0 0 0 2 .66V31h-7.9v-.63a2.41 2.41 0 0 0 2-.66 4.35 4.35 0 0 0 .49-2.44v-7.13a3.66 3.66 0 0 0-.77-2.33 2.28 2.28 0 0 0-1.84-1 4.61 4.61 0 0 0-2.28.66 5.89 5.89 0 0 0-1.86 1.6v8.21a4.35 4.35 0 0 0 .49 2.44 2.41 2.41 0 0 0 2 .66V31h-7.9v-.63a2.41 2.41 0 0 0 2-.66 4.36 4.36 0 0 0 .52-2.43z"/><path class="cls-1" d="M173.27 34V19.76a9.88 9.88 0 0 0-.14-2.12q-.14-.49-.91-.49a6.32 6.32 0 0 0-1.43.28l-.24-.59 4.77-2.16h.84v3.59a9.85 9.85 0 0 1 2.84-2.9 4.69 4.69 0 0 1 2.47-.7 4.9 4.9 0 0 1 4.13 2.16 8.82 8.82 0 0 1 1.58 5.36 10.61 10.61 0 0 1-1.95 6.58 6.15 6.15 0 0 1-5.15 2.58 6.57 6.57 0 0 1-3.9-1.18V34a4.35 4.35 0 0 0 .49 2.44 2.41 2.41 0 0 0 2 .66v.63h-7.9v-.63a2.42 2.42 0 0 0 2-.66 4.35 4.35 0 0 0 .5-2.44zm2.89-14.63v7.28a3.25 3.25 0 0 0 1.08 2.47 4 4 0 0 0 2.82 1 3.27 3.27 0 0 0 2.77-1.76 8.27 8.27 0 0 0 1.17-4.49 10.59 10.59 0 0 0-1-5.22 3.11 3.11 0 0 0-2.75-1.81 3.9 3.9 0 0 0-2.3.77 6.75 6.75 0 0 0-1.79 1.8zm17.55-12.6v20.51a4.35 4.35 0 0 0 .49 2.44 2.41 2.41 0 0 0 2 .66V31h-7.9v-.63a2.41 2.41 0 0 0 2-.66 4.35 4.35 0 0 0 .49-2.44V11.86a9.88 9.88 0 0 0-.14-2.12q-.14-.49-.91-.49a6.32 6.32 0 0 0-1.43.28l-.24-.63 4.77-2.12zm6.8 20.51v-7.52a9.86 9.86 0 0 0-.14-2.12q-.14-.49-.91-.49a6.32 6.32 0 0 0-1.43.28l-.24-.63 4.77-2.12h.84v12.6a4.35 4.35 0 0 0 .49 2.44 2.41 2.41 0 0 0 2 .66V31H198v-.63a2.41 2.41 0 0 0 2-.66 4.35 4.35 0 0 0 .51-2.43zm1.43-20.51a1.68 1.68 0 0 1 1.18.45 1.5 1.5 0 0 1 .49 1.15 1.53 1.53 0 0 1-.49 1.11 1.61 1.61 0 0 1-1.18.49 1.67 1.67 0 0 1-1.18-.45 1.5 1.5 0 0 1-.49-1.15 1.53 1.53 0 0 1 .49-1.11 1.61 1.61 0 0 1 1.17-.49zM213.07 15H217v1.2h-3.9v11.08a4.35 4.35 0 0 0 .49 2.44 2.41 2.41 0 0 0 2 .66V31h-7.9v-.63a2.41 2.41 0 0 0 2-.66 4.35 4.35 0 0 0 .49-2.44V16.21h-3.06V15h3.06v-2.42a5.91 5.91 0 0 1 1.57-4.14 5 5 0 0 1 3.87-1.71 8.4 8.4 0 0 1 3.73.7 2.26 2.26 0 0 1 1.38 2.15q0 1.36-1.43 1.36-1 0-1.81-1.5a2.34 2.34 0 0 0-2-1.5 2.14 2.14 0 0 0-1.65.91 3.18 3.18 0 0 0-.75 2.09z"/><path class="cls-1" d="M226.23 30.21l-5-10.45a13.89 13.89 0 0 0-1.85-3.18 2.34 2.34 0 0 0-1.69-1v-.63H225v.63a2 2 0 0 0-1.38.33 1.25 1.25 0 0 0-.33.92 4.54 4.54 0 0 0 .55 1.78q.31.66.66 1.29l3.1 6.58 3.4-8.11a5.27 5.27 0 0 0 .49-1.74q0-1-1.64-1V15H235v.63a1.64 1.64 0 0 0-1.37.56 10.23 10.23 0 0 0-1.1 2.19l-6.44 15.74a8.09 8.09 0 0 1-2.14 3 4.22 4.22 0 0 1-2.77 1.2 2.78 2.78 0 0 1-1.64-.49 1.45 1.45 0 0 1-.7-1.22 1.94 1.94 0 0 1 .4-1.32 1.76 1.76 0 0 1 1.38-.45 2.32 2.32 0 0 1 1 .17 3.8 3.8 0 0 0 1.29.45 1.73 1.73 0 0 0 1.39-1 18.73 18.73 0 0 0 .91-1.88z"/><rect class="cls-1" y="4.63" width="5.79" height="35.89" rx="2.51" ry="2.51"/><rect class="cls-1" x="7.95" width="5.79" height="35.89" rx="2.51" ry="2.51"/><rect class="cls-1" x="15.91" y="9.26" width="5.79" height="35.89" rx="2.51" ry="2.51"/><rect class="cls-1" x="23.86" y="4.63" width="5.79" height="35.89" rx="2.51" ry="2.51"/></g></g></svg>